<svg id="Layer_1" data-name="Layer 1" xmlns="http://www.w3.org/2000/svg" viewBox="0 0 323.89 68.5"><defs><style>.cls-1{fill:#003378;}.cls-2{fill:#2c4f8d;}.cls-3{fill:#6172a6;}</style></defs><title>210511_검사시스템로고, 신규등록</title><path class="cls-1" d="M88.31,8.36h5.58v8.82h7.63V8.36H107V31.54h-5.52V22H93.89v9.53H88.31Z"/><path class="cls-1" d="M112.43,8.36h8.1c4.8,0,8.63,1.28,8.63,5.73,0,2.06-1.15,4.31-3,5v.13a5.25,5.25,0,0,1,4.11,5.45c0,4.73-4,6.85-9.07,6.85h-8.75Zm7.88,9.19c2.37,0,3.43-1,3.43-2.61s-1.09-2.34-3.43-2.34H118v5Zm.47,9.72c2.68,0,4-1,4-2.95s-1.34-2.65-4-2.65H118v5.6Z"/><path class="cls-1" d="M146.61,31.54l-4.27-8.16h-2.68v8.16h-5.58V8.36h8.51c4.95,0,9.06,1.68,9.06,7.29a6.85,6.85,0,0,1-4,6.7l5.17,9.19Zm-7-12.55h2.49c2.65,0,4-1.16,4-3.34s-1.4-2.89-4-2.89h-2.49Z"/><path class="cls-1" d="M155.08,20.08c0-7.73,5.17-12.15,11.06-12.15a9.88,9.88,0,0,1,7.05,3l-2.93,3.55a5.77,5.77,0,0,0-4-1.81c-3,0-5.46,2.68-5.46,7.2s2.12,7.29,5.39,7.29a6,6,0,0,0,4.43-2.12l2.93,3.49A9.64,9.64,0,0,1,166,32C160.07,32,155.08,27.93,155.08,20.08Z"/><path class="cls-1" d="M182.59,28.65l3.15-3.84a9.32,9.32,0,0,0,5.64,2.37c2.06,0,3-.78,3-2s-1.27-1.78-3.27-2.62l-3-1.25c-2.43-1-4.7-3-4.7-6.35,0-3.9,3.49-7,8.41-7A10.77,10.77,0,0,1,199.42,11l-2.77,3.49a7.57,7.57,0,0,0-4.77-1.78c-1.71,0-2.77.69-2.77,1.93s1.46,1.78,3.52,2.59l2.89,1.15c2.87,1.16,4.59,3.09,4.59,6.36,0,3.86-3.25,7.26-8.85,7.26A13,13,0,0,1,182.59,28.65Z"/><path class="cls-1" d="M202.54,22.69c0-5.88,4.17-9.31,8.69-9.31s8.66,3.43,8.66,9.31S215.72,32,211.23,32,202.54,28.55,202.54,22.69Zm11.68,0c0-3-.93-4.83-3-4.83s-3,1.87-3,4.83.93,4.8,3,4.8S214.22,25.62,214.22,22.69Z"/><path class="cls-1" d="M223.38,25.78V6.65h5.52V26c0,1.15.56,1.49,1,1.49a2.75,2.75,0,0,0,.63-.06l.65,4.08a7.23,7.23,0,0,1-2.74.47C224.63,32,223.38,29.49,223.38,25.78Z"/><path class="cls-1" d="M233.54,24.78v-11h5.54V24.1c0,2.46.66,3.14,2.06,3.14s2-.5,3-1.8V13.81h5.55V31.54h-4.52l-.41-2.43h-.12A6.9,6.9,0,0,1,239.05,32C235.19,32,233.54,29.21,233.54,24.78Z"/><path class="cls-1" d="M254.82,25V18.15h-2.4V14l2.71-.22.62-4.67h4.61v4.67h4.18v4.34h-4.18v6.76c0,2,.94,2.74,2.25,2.74a6.47,6.47,0,0,0,1.62-.31l.87,4a13,13,0,0,1-4,.65C256.63,32,254.82,29.18,254.82,25Z"/><path class="cls-1" d="M267.56,8.52a3.18,3.18,0,1,1,3.18,2.83A2.91,2.91,0,0,1,267.56,8.52Zm.41,5.29h5.51V31.54H268Z"/><path class="cls-1" d="M277,22.69c0-5.88,4.18-9.31,8.7-9.31s8.66,3.43,8.66,9.31S290.15,32,285.67,32,277,28.55,277,22.69Zm11.69,0c0-3-.94-4.83-3-4.83s-3,1.87-3,4.83.94,4.8,3,4.8S288.66,25.62,288.66,22.69Z"/><path class="cls-1" d="M297.82,13.81h4.52l.37,2.22h.12a8,8,0,0,1,5.67-2.65c3.87,0,5.52,2.77,5.52,7.2v11h-5.55V21.26c0-2.43-.65-3.15-2.05-3.15s-2,.57-3.09,1.59V31.54h-5.51Z"/><path class="cls-1" d="M105.3,56.65H101v5.07H97.16V56.65H93.28v5.07H89.42V56.65H85.09v-3H105.3Zm-1-12.26H86v-3h7.29V39.34h3.85v2.07h7.19ZM95.19,45c4.92,0,7.87,1.38,7.87,3.86s-3,3.9-7.87,3.9-7.88-1.4-7.88-3.9S90.26,45,95.19,45Zm0,2.84c-2.72,0-3.89.26-3.89,1s1.17,1,3.89,1,3.87-.27,3.87-1S97.9,47.87,95.19,47.87Z"/><path class="cls-1" d="M127.21,56v3.09H107V56Zm-14.4-15.35V44h8.52V40.68h3.81V52.74H109V40.68Zm0,9h8.52V47h-8.52Z"/><path class="cls-1" d="M135,50.1c-3.43,0-6-2.14-6-5.14s2.62-5.09,6-5.09S141,42,141,45,138.43,50.1,135,50.1Zm.43,8.36h11.81v2.95H131.57V54.86h11.24v-.81H131.55V51.13h15.06V57.6H135.38ZM135,47.06a2.07,2.07,0,0,0,2.36-2.1c0-1.33-1-2.05-2.36-2.05a2.09,2.09,0,1,0,0,4.15Zm14.43-3.76v3.09h-2.77v4h-3.85v-11h3.85v4Z"/><path class="cls-1" d="M160.85,48.25a5,5,0,0,1-4.95,4.11c-3,0-5.11-2.38-5.11-5.73s2.16-5.79,5.11-5.79a5.07,5.07,0,0,1,5,4.34h.88V39.63h3.57V55.2h-3.57v-7Zm-4.95.83c1,0,1.72-.81,1.72-2.45s-.72-2.5-1.72-2.5-1.69.81-1.69,2.5S154.9,49.08,155.9,49.08Zm14.55,9.21v3H154.64V53.79h3.86v4.5Zm-.5-2.4h-3.64V39.32H170Z"/><path class="cls-1" d="M184.9,44c0,3.93.24,7.79,3.12,10.14l-2.28,2.76a8.42,8.42,0,0,1-2.72-4.4,9,9,0,0,1-3,4.64,8.9,8.9,0,0,1-3-4.54,8.24,8.24,0,0,1-2.53,4.16l-2.45-2.62C175,51.82,175.24,48,175.24,44V41h3.59v3a18,18,0,0,0,1.22,7.64A18,18,0,0,0,181.26,44V41h3.64ZM192,39.32V61.65h-3.85V39.32Z"/><path class="cls-1" d="M212.81,40.49c0,6.07-3.45,10.11-10,11.9l-1.5-3c4.54-1.19,6.9-3.31,7.4-5.88h-6.14v-3Zm-7.57,12.06h14.9v8.86h-14.9ZM209,58.43h7.34v-2.9H209ZM220.14,39.3V51.67h-3.85V47.44H213V44.37h3.31V39.3Z"/><path class="cls-1" d="M231.81,43.75c0,4.07,1.07,8.11,4.88,10l-2.31,3.05a9.43,9.43,0,0,1-4.52-5.38,9.81,9.81,0,0,1-4.93,5.78l-2.28-3.12c4-1.83,5.28-6.09,5.28-10.3V40.94h3.88Zm12.05,7.07h-3V61.65H237V39.32h3.86v8.35h3Z"/><path class="cls-1" d="M260.84,43.75c0,4.19,1.26,8.26,5.35,10L264,56.82a9.55,9.55,0,0,1-5.05-5.48,9.91,9.91,0,0,1-5.28,6.07l-2.26-3.19c4.19-1.74,5.57-6.07,5.57-10.47V40.94h3.88Zm9.59-4.48V61.72h-3.86V39.27Z"/><path class="cls-1" d="M293.88,56v3.1h-20.2V56Zm-2.14-3.33c-4.07-.74-6.69-2.79-8.09-5.38a11,11,0,0,1-8.07,5.38L274,49.46c5.62-1,7.62-4.55,7.62-7.43V40.46h4.12V42c0,2.95,1.93,6.48,7.62,7.43Z"/><path class="cls-1" d="M305.72,51.53a43.36,43.36,0,0,1-7.78.45h-1.6V40.56h8.4v3H300v1.26h4V47.7h-4V49a36,36,0,0,0,5.38-.4Zm-6.4,1.83h15.4v8h-15.4Zm3.78,5.07H311V56.34H303.1Zm3.57-10.85h-1.76v-3h1.76V39.63h3.57V52.44h-3.57Zm8.05-8.26V52.58h-3.64V39.32Z"/><path class="cls-2" d="M33.2,10.24c-6.42.93-21.61,8.21-21.61,17S22.47,39.74,22.47,39.74C10.21,39.37,4.78,31.45,4.78,26.38c0-15,25.09-16.19,26.14-16.31a7.34,7.34,0,0,1,2.28.17"/><path class="cls-3" d="M33.87,10.17s52.92-1.06,34.2,39.89c0,0,17.72-10.93,7.45-28.07C70.69,13.91,53.58,5,33.87,10.17"/><path class="cls-1" d="M60,19.46c-.71,0-7,1.18-7,6.19v6c0,2.23-1.59,7.19-5.84,8.31-.53.13-.94,0-.94-.71V22.76c0-2.3,1.47-2.91,1.94-2.91h1.24c.36,0,.65-.18.65-.47s0-.59-.52-.59H37.79c-.54,0-.54.29-.54.59s.3.47.65.47h1.24c.47,0,1.94.61,1.94,2.91v16.5c0,.71-.41.84-.94.71-4.24-1.12-6.09-6.08-6.09-8.31v-6c0-5-6.24-6.19-6.95-6.19s-1.06.3-1.06.77,0,.49.53.53c.95.06,1.65,1.12,1.65,2.59V30c0,9,10.8,11.45,11.56,11.74s.89.48.89,1.12V55c0,2.3.2,2.49-.27,2.49s-.56,0-.9,0-.65.18-.65.47,0,.59.52.59H50c.53,0,.53-.29.53-.59s-.29-.47-.65-.47H48.62c-.47,0-1.94-.24-1.94-2.54V42.87c0-.64.12-.83.88-1.12S58.88,39,58.88,30V23.35c0-1.47.71-2.53,1.65-2.59.53,0,.53-.06.53-.53s-.35-.77-1.06-.77"/><path class="cls-1" d="M22.74,39.8A32.78,32.78,0,0,1,39,51.6c2.54,3.36,15.24,8.15,28.54-1.29,0,0-5.48,11.33-18.89,11.33-4.08,0-12.34-1.65-17.27-12.13-2-4.35-5.77-8.55-8.68-9.71"/></svg>